<?xml version="1.0" encoding="utf-8"?>

<!-- Uploaded to: SVG Repo, www.svgrepo.com, Generator: SVG Repo Mixer Tools -->
<svg width="800px" height="800px" viewBox="0 0 24 24" id="magicoon-Filled" xmlns="http://www.w3.org/2000/svg">

    <defs>

        <style>.cls-1{fill:#2196f3;}</style>

    </defs>

    <title>comment-dots</title>

    <g id="comment-dots-Filled">

        <path id="comment-dots-Filled-2" data-name="comment-dots-Filled" class="cls-1"
              d="M17,3.5H7A4.507,4.507,0,0,0,2.5,8V21a.5.5,0,0,0,.31.46A.433.433,0,0,0,3,21.5a.469.469,0,0,0,.35-.15l2.42-2.41a1.5,1.5,0,0,1,1.06-.44H17A4.507,4.507,0,0,0,21.5,14V8A4.507,4.507,0,0,0,17,3.5ZM8,12.25A1.25,1.25,0,1,1,9.25,11,1.25,1.25,0,0,1,8,12.25Zm4,0A1.25,1.25,0,1,1,13.25,11,1.25,1.25,0,0,1,12,12.25Zm4,0A1.25,1.25,0,1,1,17.25,11,1.25,1.25,0,0,1,16,12.25Z"/>

    </g>

</svg>