<?xml version="1.0" encoding="iso-8859-1"?>
<!-- Uploaded to: SVG Repo, www.svgrepo.com, Generator: SVG Repo Mixer Tools -->
<svg height="800px" width="800px" version="1.1" id="Layer_1" xmlns="http://www.w3.org/2000/svg"
     viewBox="0 0 512 512" xml:space="preserve">
<polygon style="fill:#8B8892;" points="221.633,58.851 195.072,58.851 243.21,145.999 443.265,145.999 443.265,130.327 
	443.265,58.851 "/>
    <polygon style="fill:#FFB74D;" points="261.703,114.659 221.635,42.108 220.559,40.164 0,40.164 0,378.891 310.443,378.891
	443.27,378.891 443.27,275.528 443.27,271.165 443.27,114.659 "/>
    <polygon style="fill:#FFA91E;" points="261.703,114.659 221.635,42.108 221.635,378.891 310.443,378.891 443.27,378.891
	443.27,275.528 443.27,271.165 443.27,114.659 "/>
    <path style="fill:#FD7052;" d="M512,366.446c0,58.206-47.183,105.39-105.39,105.39c-0.251,0-0.502,0-0.752-0.01
	c-28.471-0.188-54.246-11.681-73.095-30.205c-16.926-16.633-28.262-38.929-30.926-63.838c-0.397-3.719-0.616-7.502-0.616-11.336
	c0-31.585,13.906-59.92,35.91-79.238c0.24-0.209,0.481-0.418,0.721-0.616c8.578-7.397,18.368-13.426,29.014-17.772
	c12.047-4.9,25.201-7.658,38.992-7.742c0.251-0.01,0.502-0.01,0.752-0.01C464.818,261.067,512,308.24,512,366.446z"/>
    <path style="fill:#FF4F18;" d="M512,366.446c0,58.206-47.183,105.39-105.39,105.39c-0.251,0-0.502,0-0.752-0.01V261.077
	c0.251-0.01,0.502-0.01,0.752-0.01C464.818,261.067,512,308.24,512,366.446z"/>
    <polygon style="fill:#FFFFFF;" points="428.025,367.475 456.161,395.601 433.991,417.772 405.864,389.635 376.265,419.235
	354.105,397.064 383.694,367.475 355.567,339.338 377.728,317.178 405.854,345.294 405.864,345.304 435.453,315.715 
	457.614,337.886 "/>
    <polygon style="fill:#D9D8DB;" points="428.025,367.475 456.161,395.601 433.991,417.772 405.864,389.635 405.854,389.646
	405.854,345.294 405.864,345.304 435.453,315.715 457.614,337.886 "/>
</svg>