<?xml version="1.0" encoding="iso-8859-1"?>
<!-- Uploaded to: SVG Repo, www.svgrepo.com, Generator: SVG Repo Mixer Tools -->
<svg height="800px" width="800px" version="1.1" id="Layer_1" xmlns="http://www.w3.org/2000/svg"
     viewBox="0 0 511.999 511.999" xml:space="preserve">
<path style="fill:#FFFFFF;" d="M58.987,481.896l128.322-70.637l-86.59-86.584L30.086,452.996L58.987,481.896z"/>
    <polygon style="fill:#1EB615;" points="402.021,23.367 100.678,324.676 187.309,411.258 488.609,109.956 "/>
    <path style="fill:#10BAFC;" d="M423.22,44.566l30.209-30.207c5.197-5.197,13.623-5.197,18.819,0l25.405,25.406
	c5.197,5.195,5.198,13.62,0,18.818L467.444,88.79L423.22,44.566z"/>
    <path d="M217.935,271.83c-2.684,0-5.369-1.027-7.41-3.082c-4.069-4.092-4.049-10.708,0.044-14.777l0.173-0.172
	c4.091-4.069,10.708-4.05,14.777,0.044c4.069,4.092,4.049,10.708-0.044,14.777l-0.173,0.172
	C223.264,270.819,220.599,271.83,217.935,271.83z"/>
    <path d="M511.999,49.172c0-6.346-2.471-12.311-6.958-16.796L479.637,6.973c-4.486-4.489-10.452-6.96-16.798-6.96
	c-6.346,0-12.312,2.471-16.799,6.958L423.22,29.789l-13.81-13.81c-4.08-4.078-10.696-4.079-14.777,0L93.291,317.287
	c-0.862,0.861-1.546,1.863-2.056,2.947L20.932,447.957c-2.242,4.073-1.522,9.14,1.766,12.427l4.299,4.299L3.06,488.62
	c-4.079,4.08-4.08,10.696,0,14.777l5.528,5.529c1.959,1.96,4.617,3.062,7.388,3.062s5.428-1.101,7.388-3.06l23.937-23.937
	l4.297,4.296c2.011,2.01,4.685,3.06,7.392,3.06c1.72,0,3.453-0.423,5.035-1.295l128.136-70.536c0.007-0.003,0.014-0.007,0.02-0.01
	l0.166-0.092c-0.002-0.001-0.003-0.003-0.005-0.004c0.844-0.464,1.639-1.046,2.355-1.761l301.301-301.302
	c4.08-4.08,4.08-10.697,0-14.778L482.22,88.791l22.819-22.82C509.528,61.485,511.999,55.519,511.999,49.172z M60.825,468.958
	l-17.8-17.799l60.128-109.238l66.929,66.893L60.825,468.958z M187.309,396.48l-71.83-71.826l286.542-286.51l71.812,71.813
	L187.309,396.48z M490.263,51.194l-22.82,22.82l-29.447-29.447l22.821-22.818c0.692-0.692,1.481-0.838,2.022-0.838
	c0.54,0,1.328,0.145,2.02,0.838l25.407,25.408c0.691,0.691,0.836,1.479,0.836,2.019C491.101,49.713,490.956,50.502,490.263,51.194z"
    />
    <path d="M242.01,247.755c-2.675,0-5.348-1.021-7.388-3.061c-4.08-4.08-4.08-10.697,0-14.778l71.767-71.767
	c4.081-4.079,10.696-4.079,14.778,0c4.08,4.08,4.08,10.697,0,14.778L249.4,244.694C247.358,246.735,244.685,247.755,242.01,247.755z
	"/>
</svg>